<mxfile host="app.diagrams.net" modified="2021-11-10T13:06:20.228Z" agent="5.0 (Windows NT 10.0; Win64; x64) AppleWebKit/537.36 (KHTML, like Gecko) Chrome/90.0.4430.212 Safari/537.36" etag="1Z81R963L083C6UVzSWR" version="15.7.1" type="github">
  <diagram id="bcIzc9HBnw7anuGvXkkn" name="第 1 页">
    <mxGraphModel dx="1422" dy="762" grid="1" gridSize="10" guides="1" tooltips="1" connect="1" arrows="1" fold="1" page="1" pageScale="1" pageWidth="827" pageHeight="1169" math="0" shadow="0">
      <root>
        <mxCell id="0" />
        <mxCell id="1" parent="0" />
        <mxCell id="HtPdtz5hV8PJw4BUEiRG-1" value="" style="rounded=0;whiteSpace=wrap;html=1;fillColor=#f5f5f5;strokeColor=#666666;fontColor=#333333;" vertex="1" parent="1">
          <mxGeometry x="30" y="70" width="260" height="60" as="geometry" />
        </mxCell>
        <mxCell id="HtPdtz5hV8PJw4BUEiRG-3" value="" style="rounded=0;whiteSpace=wrap;html=1;fillColor=#f5f5f5;strokeColor=#666666;fontColor=#333333;" vertex="1" parent="1">
          <mxGeometry x="30" y="230" width="260" height="60" as="geometry" />
        </mxCell>
        <mxCell id="HtPdtz5hV8PJw4BUEiRG-4" value="" style="rounded=0;whiteSpace=wrap;html=1;fillColor=#f5f5f5;strokeColor=#666666;fontColor=#333333;" vertex="1" parent="1">
          <mxGeometry x="30" y="150" width="260" height="60" as="geometry" />
        </mxCell>
        <mxCell id="HtPdtz5hV8PJw4BUEiRG-5" value="" style="rounded=0;whiteSpace=wrap;html=1;fillColor=#f5f5f5;strokeColor=#666666;fontColor=#333333;" vertex="1" parent="1">
          <mxGeometry x="30" y="310" width="260" height="60" as="geometry" />
        </mxCell>
      </root>
    </mxGraphModel>
  </diagram>
</mxfile>
